# xmcd CD database file
#
# Track frame offsets:
#	150
#	24332
#	44027
#
# Disc length: 906 seconds
#
# Revision: 2
# Processed by: cddbd v1.5.1PL0 Copyright (c) Steve Scherf et al.
# Submitted via: CDex 1.51
#
DISCID=1f038803
DTITLE=Chihiro Onitsuka - Watashi to Waltz o
DYEAR=2003
DGENRE=J-POP
TTITLE0=Watashi to Waltz o
TTITLE1=Rebel Luck
TTITLE2=Watashi to Waltz o(Backing Track)
EXTD=YEAR: 2003
EXTT0=
EXTT1=
EXTT2=
PLAYORDER=
